<?xml version="1.0" standalone="no"?>
<!DOCTYPE svg PUBLIC "-//W3C//DTD SVG 20010904//EN"
 "http://www.w3.org/TR/2001/REC-SVG-20010904/DTD/svg10.dtd">
<svg version="1.0" xmlns="http://www.w3.org/2000/svg"
 width="21.333333333333332px" height="21.333333333333332px" viewBox="0 0 16.000000 16.000000"
 preserveAspectRatio="xMidYMid meet">

<g transform="translate(0.000000,16.000000) scale(0.100000,-0.100000)"
fill="#000000" stroke="none">
<path d="M70 130 c0 -5 -8 -10 -18 -10 -25 0 -42 -20 -42 -50 0 -37 18 -50 70
-50 52 0 70 13 70 50 0 30 -17 50 -42 50 -10 0 -18 5 -18 10 0 6 -4 10 -10 10
-5 0 -10 -4 -10 -10z m54 -33 c43 -32 -15 -81 -71 -61 -15 5 -29 18 -31 29 -8
38 63 60 102 32z"/>
<path d="M45 80 c-4 -6 -3 -16 3 -22 6 -6 12 -6 17 2 4 6 3 16 -3 22 -6 6 -12
6 -17 -2z"/>
</g>
</svg>
