<?xml version="1.0" encoding="utf-8"?>
<!-- Generator: Adobe Illustrator 24.0.1, SVG Export Plug-In . SVG Version: 6.00 Build 0)  -->
<svg version="1.1" id="Capa_1" xmlns="http://www.w3.org/2000/svg" xmlns:xlink="http://www.w3.org/1999/xlink" x="0px" y="0px"
	 viewBox="0 0 595.28 368.38" style="enable-background:new 0 0 595.28 368.38;" xml:space="preserve">
<style type="text/css">
	.st0{fill:#9D4D98;}
	.st1{fill-rule:evenodd;clip-rule:evenodd;}
	.st2{font-family:'November';}
	.st3{font-size:34.5796px;}
	.st4{font-size:10.0613px;}
</style>
<path class="st0" d="M435.73,339.24H148.07c-15.2,0-27.53-12.33-27.53-27.53V60.05c0-15.2,12.33-27.53,27.53-27.53h287.66
	c15.2,0,27.53,12.33,27.53,27.53v251.66C463.26,326.91,450.93,339.24,435.73,339.24z"/>
<g>
	<path class="st1" d="M252.27,253.01c-48.2-20.25-66.56-70.09-56.9-110.23c9.51-39.53,42.72-71.81,87.94-74.92
		c-1.09,7.16-2.09,15.22-3.28,22.27c-39.33,5.98-60.72,35.24-64.41,64.3c-4.1,32.32,12.57,62.76,41.91,76.97L252.27,253.01z"/>
	<path class="st1" d="M305.27,68.99c-7.3-1.08-11.09-1.21-16.98-1.32c-2.12,9.51-8.28,44.92-7.4,54.86
		c0.44,4.99,4.69,8.59,8.15,11.99L305.27,68.99z"/>
	<path class="st1" d="M291.4,136.69l17.01-67.07c6.44,1.14,12.73,3.35,17.67,5.28c-3.68,11.51-7.03,22.96-10.95,34.39
		c-6.17,18.03-9.79,22.56-18.97,31.87L291.4,136.69z"/>
	<path class="st1" d="M269.23,140.49c-8.58-8.51-10.92-29.9,9.11-36.37c-1.09,7.63-3.64,21.6,2.8,28.08
		c3.39,3.42,6.83,7.43,12.2,11.9c-3.51,3.79-6.1,6.92-9.31,11.06L269.23,140.49z"/>
	<path class="st1" d="M261.16,131.22c0.5,3.79,1.04,5.83,4.03,9.55c4.4,5.47,10.79,11.09,17,16.62c-2.45,3.3-4.86,6.65-7.02,10.26
		c-4.75-4.18-9.8-7.47-13.93-12.27C257.81,151.4,253.71,139.93,261.16,131.22z"/>
	<path class="st1" d="M323.87,136.23c8.01-12.82,1.45-19.46-5.47-25.47c-4.02,11.74-6.99,18.82-17.93,30.29
		c-12.63,13.24-23.71,26.56-27.07,38.76c-1.66,6.05-0.63,10.57,8.58,13.02C291.32,167.55,312.45,154.5,323.87,136.23z"/>
	<path class="st1" d="M306.14,185.33c8.29-9.25,21.45-27.3,15.66-40.94c-11.36,13.39-29.46,29.41-36.64,49.1
		C290.66,194.51,299.24,193.02,306.14,185.33z"/>
	<path class="st1" d="M281.33,196.08c-13.25-2.66-15.47-11.63-7.92-26.22c-3.9-3.33-7.04-5.88-10.58-8.9
		c-11.32,13.33-13.88,42.14,17.15,48.61c30.52,6.35,43.91-12.7,38.14-36.31C310.87,186.5,302.19,200.28,281.33,196.08z"/>
	<path class="st1" d="M314.62,203.35c-7.25,10.51-21.55,11.41-33.39,9.44c-12.78-2.13-23.75-9.13-26.27-19.72
		c-2.04,10.94,0.36,24.47,22.68,29.43C297.55,226.91,316.76,219.54,314.62,203.35z"/>
	<path class="st1" d="M275.69,225.09c-2.25-0.63-7.73-2.06-11.34-4.48c-2.83,11.19-5.7,22.6-8.53,33.8
		c4.56,1.79,8.74,2.92,13.37,3.89C271.26,246.97,273.43,239.24,275.69,225.09z"/>
	<path class="st1" d="M272.7,259c1.98-11.13,3.96-22.26,5.94-33.39c5.85,1,9.58,1.25,13.87,1.04l-4.73,33.75
		C282.43,260.32,277.14,259.74,272.7,259z"/>
	<path class="st1" d="M330.05,76.38c-2.52,6.79-4.2,14.54-6.72,21.33c33.77,17.79,45.68,54.23,38.45,83.96
		c-7.46,30.66-33.29,54.27-67.41,56.7c-0.88,6.92-1.86,15.09-2.74,22.01c55.33-1.34,92.47-46.01,94.05-92.51
		C386.93,131.04,367.21,93.91,330.05,76.38z"/>
</g>
<g>
	<text transform="matrix(1 0 0 1 137.4663 296.2661)"><tspan x="0" y="0" class="st2 st3">V</tspan><tspan x="21.75" y="0" class="st2 st3">uit Climbing Club</tspan></text>
	<text transform="matrix(1 0 0 1 143.5435 308.5869)"><tspan x="0" y="0" class="st2 st4">C</tspan><tspan x="6.68" y="0" class="st2 st4">lub de Escalada</tspan></text>
</g>
</svg>
